<svg width="200" height="200" viewBox="0 0 200 200" fill="none" xmlns="http://www.w3.org/2000/svg">
<path d="M100.745 0C113.425 0 124.937 4.13558 133.424 10.8662C134.823 11.9755 133.984 14.085 132.199 14.085H109.033C124.253 16.4799 137.826 25.6216 147.837 39.082C149.023 40.6779 147.847 42.8799 145.858 42.8799H131.492C135.801 45.731 139.938 49.1468 143.868 53.0752C149.1 57.8598 153.553 62.9801 157.12 68.3711V56.2334C157.12 54.2446 159.322 53.069 160.918 54.2559C174.379 64.2669 183.522 77.8397 185.916 93.0605V69.3057C185.916 67.5206 188.024 66.6826 189.134 68.0811C195.864 76.5676 200 88.0803 200 100.76C200 113.439 195.864 124.952 189.134 133.438C188.024 134.837 185.916 133.999 185.916 132.214V109.045C183.522 124.266 174.379 137.84 160.918 147.852C159.322 149.038 157.12 147.862 157.12 145.873V131.507C154.234 135.869 150.768 140.053 146.778 144.026C142.035 149.19 136.963 153.589 131.626 157.12H143.765C145.753 157.12 146.929 159.322 145.742 160.918C135.731 174.379 122.158 183.522 106.937 185.916H130.692C132.477 185.916 133.315 188.024 131.917 189.134C123.43 195.864 111.918 200 99.2383 200C86.5588 200 75.0461 195.864 66.5596 189.134C65.161 188.025 65.9983 185.916 67.7832 185.916H90.9531C75.7316 183.522 62.1578 174.379 52.1465 160.918C50.9598 159.322 52.1362 157.12 54.125 157.12H68.4912C64.1737 154.263 60.0287 150.84 56.0918 146.901C50.8771 142.127 46.4381 137.018 42.8799 131.641V143.779C42.8799 145.768 40.6779 146.944 39.082 145.757C25.6214 135.746 16.4797 122.174 14.085 106.953V130.707C14.0849 132.492 11.9755 133.33 10.8662 131.932C4.13556 123.445 4.20718e-05 111.932 0 99.2529C0 86.5734 4.13562 75.0608 10.8662 66.5742C11.9755 65.1755 14.085 66.0136 14.085 67.7988V90.9648C16.4799 75.7446 25.6216 62.1718 39.082 52.1611C40.6779 50.9745 42.8799 52.1509 42.8799 54.1396V68.5049C45.6938 64.2523 49.0579 60.1671 52.9219 56.2832C57.7461 50.9859 62.9134 46.4815 68.3564 42.8799H56.2188C54.23 42.8799 53.0536 40.6779 54.2402 39.082C64.2509 25.6216 77.8237 16.4799 93.0439 14.085H69.291C67.5058 14.085 66.6677 11.9755 68.0664 10.8662C76.553 4.13555 88.0656 1.38678e-05 100.745 0Z" fill="#8B5CF6"/>
</svg>
